<svg width="1102" height="283" viewBox="0 0 1102 283" version="1.1" xmlns="http://www.w3.org/2000/svg" xmlns:xlink="http://www.w3.org/1999/xlink">
<title>storybook-logo</title>
<desc>Created using Figma</desc>
<g id="Canvas" transform="translate(463 -2191)">
 clip-path="url(#clip-0)"<g id="storybook-logo">
<g id="Vector">
<use xlink:href="#path0_fill" transform="translate(-457 2210)" fill="#AD76B8"/>
</g>
<g id="Vector">
<use xlink:href="#path1_fill" transform="translate(-443 2196)" fill="#F77199"/>
</g>
<g id="Vector 2">
<use xlink:href="#path2_fill" transform="translate(-297 2197)" fill="#FFFFFF"/>
</g>
<g id="TORY">
<use xlink:href="#path3_fill" transform="translate(-231 2260)" fill="#7AB4F8"/>
<use xlink:href="#path4_fill" transform="translate(-231 2260)" fill="#B987E4"/>
<use xlink:href="#path5_fill" transform="translate(-231 2260)" fill="#A9E26B"/>
<use xlink:href="#path6_fill" transform="translate(-231 2260)" fill="#F3AD38"/>
</g>
<g id="S">
<use xlink:href="#path7_fill" transform="translate(-403 2235)" fill="#FFFFFF"/>
</g>
<g id="B">
<use xlink:href="#path8_fill" transform="translate(173 2235)" fill="#B987E4"/>
</g>
<g id="OOK">
<use xlink:href="#path9_fill" transform="translate(313 2260)" fill="#7AB4F9"/>
<use xlink:href="#path10_fill" transform="translate(313 2260)" fill="#A9E26B"/>
<use xlink:href="#path11_fill" transform="translate(313 2260)" fill="#F76F6F"/>
</g>
</g>
</g>
<defs>
<path id="path0_fill" d="M 21 246L 9 0L 0 0L 9 246L 21 246Z"/>
<path id="path1_fill" d="M 12 260L 0 14L 196 0L 196 269L 12 260Z"/>
<path id="path2_fill" d="M 0 36L 2 1.5L 26 0L 26 36L 14.1818 25.3091L 0 36Z"/>
<path id="path3_fill" d="M 290.902 15.13C 290.902 15.13 308.002 61.49 326.242 106.52C 326.242 116.21 326.242 122.29 326.622 144.52L 358.542 141.48C 358.542 141.48 357.402 127.42 357.212 106.33C 362.912 92.84 382.292 46.1 394.262 12.09L 361.392 8.1C 361.392 8.1 353.222 34.51 342.392 67.76C 342.392 67.76 333.842 43.44 326.052 12.85L 290.902 15.13Z"/>
<path id="path4_fill" d="M 197.115 144.9C 206.995 144.9 228.085 143.57 228.085 143.57C 228.085 120.01 228.465 98.92 228.465 95.5C 230.365 95.12 232.645 94.74 234.735 94.36C 241.765 106.52 253.355 125.33 267.795 144.14L 297.245 134.83C 280.335 112.03 270.645 95.88 264.945 85.24C 278.815 77.26 284.705 65.1 284.705 51.04C 284.705 27.29 267.415 10.76 219.535 9.43C 212.885 9.24 204.715 9.24 196.545 10C 196.545 10 197.115 78.59 197.115 119.44L 197.115 144.9ZM 252.405 52.75C 252.405 62.25 243.095 67.76 228.845 68.71C 229.035 55.98 229.035 41.54 229.035 38.12C 244.045 37.74 252.595 42.68 252.405 52.75Z"/>
<path id="path5_fill" d="M 180.273 75.74C 181.223 36.41 167.543 10.19 135.053 10.19C 101.423 10.19 87.7429 42.49 86.9829 81.06C 86.2229 116.78 98.3829 144.71 131.823 144.52C 166.403 144.14 179.133 113.36 180.273 75.74ZM 148.543 76.88C 147.593 98.92 143.793 117.35 132.393 117.54C 122.323 117.54 118.523 101.58 118.903 81.25C 119.663 57.12 125.743 38.88 136.003 39.07C 148.163 39.07 149.113 58.64 148.543 76.88Z"/>
<path id="path6_fill" d="M 2.66 39.07L 24.7 38.31L 24.7 47.62C 24.7 69.28 24.51 103.1 24.89 143.76L 56.24 142.43C 56.24 142.43 56.24 85.05 57.57 36.6C 69.16 35.84 77.9 35.27 77.9 35.27C 79.04 25.39 78.28 13.04 77.71 10.19C 47.5 10.19 2.85 12.66 2.85 12.66C 2.47 16.65 2.28 26.15 2.66 39.07Z"/>
<path id="path7_fill" d="M 74.64 65.28L 113.28 64.32C 114.24 26.88 94.8 8.40001 60.96 8.40001C 27.12 8.40001 8.16 27.6 8.16 56.4C 8.16 106.56 72.96 107.52 72.96 134.88C 72.96 142.56 69.36 147.12 61.44 147.12C 51.12 147.12 47.04 140.4 47.52 121.68L 6.96 121.68C 3.84 168 30.96 178.56 61.92 178.56C 91.92 178.56 115.44 164.64 115.44 134.4C 115.44 80.64 49.68 82.08 49.68 55.44C 49.68 44.64 57.36 43.2 61.92 43.2C 66.72 43.2 75.36 45.12 74.64 65.28Z"/>
<path id="path8_fill" d="M 101.28 97.44C 113.76 92.88 125.76 81.6 125.76 60.48C 125.76 37.92 105.12 17.76 46.32 15.6C 37.2 15.12 27.12 15.12 16.08 16.32C 16.08 16.32 14.16 143.04 12.72 180C 12.72 180 18.24 180 21.12 180C 91.92 181.44 122.88 162.72 124.8 132.48C 125.76 115.92 118.08 102.96 101.28 97.44ZM 85.92 66.24C 84.96 76.32 74.4 84 54 85.44C 54.48 69.84 55.68 51.36 55.92 48.96C 78.72 49.2 86.16 56.88 85.92 66.24ZM 52.56 146.88C 52.56 136.08 52.8 125.52 52.8 114.72C 55.92 114.48 59.04 114.48 61.68 114.72C 75.84 115.2 82.32 118.56 83.28 124.8C 83.76 126.72 83.76 129.12 83.28 131.52C 80.88 141.12 69.6 146.16 52.56 146.88Z"/>
<path id="path9_fill" d="M 286.953 8.86001C 286.953 8.86001 269.283 39.64 252.943 69.09C 252.943 50.09 253.323 29 254.273 10L 221.783 9.43C 221.783 9.43 221.593 18.93 221.593 31.47C 221.593 54.08 221.973 95.88 223.303 140.91L 253.703 139.39C 253.703 139.39 253.133 116.21 252.943 87.9C 259.783 100.06 271.753 119.63 286.193 138.82L 313.553 127.23C 296.643 104.43 287.523 88.47 282.393 78.4C 287.333 68.14 295.693 50.28 317.543 13.8L 286.953 8.86001Z"/>
<path id="path10_fill" d="M 205.322 75.74C 206.272 36.41 192.592 10.19 160.102 10.19C 126.472 10.19 112.792 42.49 112.032 81.06C 111.272 116.78 123.432 144.71 156.872 144.52C 191.452 144.14 204.182 113.36 205.322 75.74ZM 173.592 76.88C 172.642 98.92 168.842 117.35 157.442 117.54C 147.372 117.54 143.572 101.58 143.952 81.25C 144.712 57.12 150.792 38.88 161.052 39.07C 173.212 39.07 174.162 58.64 173.592 76.88Z"/>
<path id="path11_fill" d="M 99.56 75.74C 100.51 36.41 86.83 10.19 54.34 10.19C 20.71 10.19 7.03 42.49 6.27 81.06C 5.51 116.78 17.67 144.71 51.11 144.52C 85.69 144.14 98.42 113.36 99.56 75.74ZM 67.83 76.88C 66.88 98.92 63.08 117.35 51.68 117.54C 41.61 117.54 37.81 101.58 38.19 81.25C 38.95 57.12 45.03 38.88 55.29 39.07C 67.45 39.07 68.4 58.64 67.83 76.88Z"/>
</defs>
</svg>
